<mxfile host="app.diagrams.net" modified="2021-05-27T20:48:11.178Z" agent="5.0 (Windows NT 10.0; Win64; x64) AppleWebKit/537.36 (KHTML, like Gecko) Chrome/90.0.4430.212 Safari/537.36" etag="OixgcUqEfOAVONDk5Rjn" version="14.7.2" type="github">
  <diagram id="Ukz6Ybc7graYhTf6FiOU" name="Page-1">
    <mxGraphModel dx="1130" dy="580" grid="1" gridSize="10" guides="1" tooltips="1" connect="1" arrows="1" fold="1" page="1" pageScale="1" pageWidth="850" pageHeight="1100" math="0" shadow="0">
      <root>
        <mxCell id="0" />
        <mxCell id="1" parent="0" />
        <mxCell id="MiI8-VRYyV7ej-dN8pEf-57" style="edgeStyle=orthogonalEdgeStyle;rounded=0;orthogonalLoop=1;jettySize=auto;html=1;exitX=0.5;exitY=1;exitDx=0;exitDy=0;entryX=0.5;entryY=0;entryDx=0;entryDy=0;" edge="1" parent="1" source="MiI8-VRYyV7ej-dN8pEf-54" target="MiI8-VRYyV7ej-dN8pEf-55">
          <mxGeometry relative="1" as="geometry" />
        </mxCell>
        <mxCell id="MiI8-VRYyV7ej-dN8pEf-54" value="1&lt;span style=&quot;color: rgba(0 , 0 , 0 , 0) ; font-family: monospace ; font-size: 0px&quot;&gt;%3CmxGraphModel%3E%3Croot%3E%3CmxCell%20id%3D%220%22%2F%3E%3CmxCell%20id%3D%221%22%20parent%3D%220%22%2F%3E%3CmxCell%20id%3D%222%22%20value%3D%225%22%20style%3D%22ellipse%3BwhiteSpace%3Dwrap%3Bhtml%3D1%3Baspect%3Dfixed%3B%22%20vertex%3D%221%22%20parent%3D%221%22%3E%3CmxGeometry%20x%3D%22320%22%20y%3D%22180%22%20width%3D%2230%22%20height%3D%2230%22%20as%3D%22geometry%22%2F%3E%3C%2FmxCell%3E%3C%2Froot%3E%3C%2FmxGraphModel%3E&lt;/span&gt;" style="ellipse;whiteSpace=wrap;html=1;aspect=fixed;" vertex="1" parent="1">
          <mxGeometry x="425" y="10" width="30" height="30" as="geometry" />
        </mxCell>
        <mxCell id="MiI8-VRYyV7ej-dN8pEf-58" style="edgeStyle=orthogonalEdgeStyle;rounded=0;orthogonalLoop=1;jettySize=auto;html=1;exitX=0.5;exitY=1;exitDx=0;exitDy=0;entryX=0.5;entryY=0;entryDx=0;entryDy=0;" edge="1" parent="1" source="MiI8-VRYyV7ej-dN8pEf-55" target="MiI8-VRYyV7ej-dN8pEf-56">
          <mxGeometry relative="1" as="geometry" />
        </mxCell>
        <mxCell id="MiI8-VRYyV7ej-dN8pEf-55" value="2" style="ellipse;whiteSpace=wrap;html=1;aspect=fixed;" vertex="1" parent="1">
          <mxGeometry x="425" y="60" width="30" height="30" as="geometry" />
        </mxCell>
        <mxCell id="MiI8-VRYyV7ej-dN8pEf-60" style="edgeStyle=orthogonalEdgeStyle;rounded=0;orthogonalLoop=1;jettySize=auto;html=1;exitX=0;exitY=0.5;exitDx=0;exitDy=0;entryX=0.5;entryY=0;entryDx=0;entryDy=0;" edge="1" parent="1" source="MiI8-VRYyV7ej-dN8pEf-56" target="MiI8-VRYyV7ej-dN8pEf-59">
          <mxGeometry relative="1" as="geometry" />
        </mxCell>
        <mxCell id="MiI8-VRYyV7ej-dN8pEf-56" value="3" style="ellipse;whiteSpace=wrap;html=1;aspect=fixed;" vertex="1" parent="1">
          <mxGeometry x="425" y="110" width="30" height="30" as="geometry" />
        </mxCell>
        <mxCell id="MiI8-VRYyV7ej-dN8pEf-63" style="edgeStyle=orthogonalEdgeStyle;rounded=0;orthogonalLoop=1;jettySize=auto;html=1;entryX=0.5;entryY=0;entryDx=0;entryDy=0;" edge="1" parent="1" source="MiI8-VRYyV7ej-dN8pEf-59" target="MiI8-VRYyV7ej-dN8pEf-61">
          <mxGeometry relative="1" as="geometry" />
        </mxCell>
        <mxCell id="MiI8-VRYyV7ej-dN8pEf-64" style="edgeStyle=orthogonalEdgeStyle;rounded=0;orthogonalLoop=1;jettySize=auto;html=1;entryX=0.5;entryY=0;entryDx=0;entryDy=0;" edge="1" parent="1" source="MiI8-VRYyV7ej-dN8pEf-59" target="MiI8-VRYyV7ej-dN8pEf-62">
          <mxGeometry relative="1" as="geometry" />
        </mxCell>
        <mxCell id="MiI8-VRYyV7ej-dN8pEf-59" value="4" style="ellipse;whiteSpace=wrap;html=1;aspect=fixed;" vertex="1" parent="1">
          <mxGeometry x="360" y="160" width="30" height="30" as="geometry" />
        </mxCell>
        <mxCell id="MiI8-VRYyV7ej-dN8pEf-67" style="edgeStyle=orthogonalEdgeStyle;rounded=0;orthogonalLoop=1;jettySize=auto;html=1;exitX=0.5;exitY=1;exitDx=0;exitDy=0;entryX=0.5;entryY=0;entryDx=0;entryDy=0;" edge="1" parent="1" source="MiI8-VRYyV7ej-dN8pEf-61" target="MiI8-VRYyV7ej-dN8pEf-66">
          <mxGeometry relative="1" as="geometry" />
        </mxCell>
        <mxCell id="MiI8-VRYyV7ej-dN8pEf-68" style="edgeStyle=orthogonalEdgeStyle;rounded=0;orthogonalLoop=1;jettySize=auto;html=1;exitX=0;exitY=0.5;exitDx=0;exitDy=0;entryX=0.5;entryY=0;entryDx=0;entryDy=0;" edge="1" parent="1" source="MiI8-VRYyV7ej-dN8pEf-61" target="MiI8-VRYyV7ej-dN8pEf-65">
          <mxGeometry relative="1" as="geometry" />
        </mxCell>
        <mxCell id="MiI8-VRYyV7ej-dN8pEf-61" value="5" style="ellipse;whiteSpace=wrap;html=1;aspect=fixed;" vertex="1" parent="1">
          <mxGeometry x="310" y="210" width="30" height="30" as="geometry" />
        </mxCell>
        <mxCell id="MiI8-VRYyV7ej-dN8pEf-78" style="edgeStyle=orthogonalEdgeStyle;rounded=0;orthogonalLoop=1;jettySize=auto;html=1;entryX=0.5;entryY=0;entryDx=0;entryDy=0;" edge="1" parent="1" source="MiI8-VRYyV7ej-dN8pEf-62" target="MiI8-VRYyV7ej-dN8pEf-75">
          <mxGeometry relative="1" as="geometry" />
        </mxCell>
        <mxCell id="MiI8-VRYyV7ej-dN8pEf-98" style="edgeStyle=orthogonalEdgeStyle;rounded=0;orthogonalLoop=1;jettySize=auto;html=1;exitX=1;exitY=0;exitDx=0;exitDy=0;entryX=0;entryY=0.5;entryDx=0;entryDy=0;" edge="1" parent="1" source="MiI8-VRYyV7ej-dN8pEf-62" target="MiI8-VRYyV7ej-dN8pEf-97">
          <mxGeometry relative="1" as="geometry" />
        </mxCell>
        <mxCell id="MiI8-VRYyV7ej-dN8pEf-62" value="9" style="ellipse;whiteSpace=wrap;html=1;aspect=fixed;" vertex="1" parent="1">
          <mxGeometry x="410" y="210" width="30" height="30" as="geometry" />
        </mxCell>
        <mxCell id="MiI8-VRYyV7ej-dN8pEf-73" style="edgeStyle=orthogonalEdgeStyle;rounded=0;orthogonalLoop=1;jettySize=auto;html=1;exitX=1;exitY=0.5;exitDx=0;exitDy=0;" edge="1" parent="1" source="MiI8-VRYyV7ej-dN8pEf-65" target="MiI8-VRYyV7ej-dN8pEf-71">
          <mxGeometry relative="1" as="geometry">
            <Array as="points">
              <mxPoint x="200" y="275" />
              <mxPoint x="200" y="475" />
            </Array>
          </mxGeometry>
        </mxCell>
        <mxCell id="MiI8-VRYyV7ej-dN8pEf-65" value="6" style="ellipse;whiteSpace=wrap;html=1;aspect=fixed;" vertex="1" parent="1">
          <mxGeometry x="190" y="260" width="30" height="30" as="geometry" />
        </mxCell>
        <mxCell id="MiI8-VRYyV7ej-dN8pEf-70" style="edgeStyle=orthogonalEdgeStyle;rounded=0;orthogonalLoop=1;jettySize=auto;html=1;exitX=0.5;exitY=1;exitDx=0;exitDy=0;entryX=0.5;entryY=0;entryDx=0;entryDy=0;" edge="1" parent="1" source="MiI8-VRYyV7ej-dN8pEf-66" target="MiI8-VRYyV7ej-dN8pEf-69">
          <mxGeometry relative="1" as="geometry" />
        </mxCell>
        <mxCell id="MiI8-VRYyV7ej-dN8pEf-66" value="7" style="ellipse;whiteSpace=wrap;html=1;aspect=fixed;" vertex="1" parent="1">
          <mxGeometry x="310" y="260" width="30" height="30" as="geometry" />
        </mxCell>
        <mxCell id="MiI8-VRYyV7ej-dN8pEf-84" style="edgeStyle=orthogonalEdgeStyle;rounded=0;orthogonalLoop=1;jettySize=auto;html=1;exitX=0.5;exitY=1;exitDx=0;exitDy=0;" edge="1" parent="1" source="MiI8-VRYyV7ej-dN8pEf-69" target="MiI8-VRYyV7ej-dN8pEf-71">
          <mxGeometry relative="1" as="geometry" />
        </mxCell>
        <mxCell id="MiI8-VRYyV7ej-dN8pEf-69" value="8" style="ellipse;whiteSpace=wrap;html=1;aspect=fixed;" vertex="1" parent="1">
          <mxGeometry x="310" y="310" width="30" height="30" as="geometry" />
        </mxCell>
        <mxCell id="MiI8-VRYyV7ej-dN8pEf-71" value="23" style="ellipse;whiteSpace=wrap;html=1;aspect=fixed;" vertex="1" parent="1">
          <mxGeometry x="310" y="460" width="30" height="30" as="geometry" />
        </mxCell>
        <mxCell id="MiI8-VRYyV7ej-dN8pEf-79" style="edgeStyle=orthogonalEdgeStyle;rounded=0;orthogonalLoop=1;jettySize=auto;html=1;exitX=0;exitY=0.5;exitDx=0;exitDy=0;entryX=0.5;entryY=0;entryDx=0;entryDy=0;" edge="1" parent="1" source="MiI8-VRYyV7ej-dN8pEf-75" target="MiI8-VRYyV7ej-dN8pEf-76">
          <mxGeometry relative="1" as="geometry" />
        </mxCell>
        <mxCell id="MiI8-VRYyV7ej-dN8pEf-80" style="edgeStyle=orthogonalEdgeStyle;rounded=0;orthogonalLoop=1;jettySize=auto;html=1;exitX=1;exitY=0.5;exitDx=0;exitDy=0;entryX=0.5;entryY=0;entryDx=0;entryDy=0;" edge="1" parent="1" source="MiI8-VRYyV7ej-dN8pEf-75" target="MiI8-VRYyV7ej-dN8pEf-77">
          <mxGeometry relative="1" as="geometry" />
        </mxCell>
        <mxCell id="MiI8-VRYyV7ej-dN8pEf-75" value="10" style="ellipse;whiteSpace=wrap;html=1;aspect=fixed;" vertex="1" parent="1">
          <mxGeometry x="470" y="260" width="30" height="30" as="geometry" />
        </mxCell>
        <mxCell id="MiI8-VRYyV7ej-dN8pEf-85" style="edgeStyle=orthogonalEdgeStyle;rounded=0;orthogonalLoop=1;jettySize=auto;html=1;exitX=0.5;exitY=1;exitDx=0;exitDy=0;entryX=1;entryY=0.5;entryDx=0;entryDy=0;" edge="1" parent="1" source="MiI8-VRYyV7ej-dN8pEf-76" target="MiI8-VRYyV7ej-dN8pEf-71">
          <mxGeometry relative="1" as="geometry">
            <mxPoint x="425" y="490" as="targetPoint" />
            <Array as="points">
              <mxPoint x="425" y="475" />
            </Array>
          </mxGeometry>
        </mxCell>
        <mxCell id="MiI8-VRYyV7ej-dN8pEf-76" value="11" style="ellipse;whiteSpace=wrap;html=1;aspect=fixed;" vertex="1" parent="1">
          <mxGeometry x="410" y="400" width="30" height="30" as="geometry" />
        </mxCell>
        <mxCell id="MiI8-VRYyV7ej-dN8pEf-89" style="edgeStyle=orthogonalEdgeStyle;rounded=0;orthogonalLoop=1;jettySize=auto;html=1;exitX=0;exitY=0.5;exitDx=0;exitDy=0;entryX=0.5;entryY=0;entryDx=0;entryDy=0;" edge="1" parent="1" source="MiI8-VRYyV7ej-dN8pEf-77" target="MiI8-VRYyV7ej-dN8pEf-86">
          <mxGeometry relative="1" as="geometry" />
        </mxCell>
        <mxCell id="MiI8-VRYyV7ej-dN8pEf-77" value="12" style="ellipse;whiteSpace=wrap;html=1;aspect=fixed;" vertex="1" parent="1">
          <mxGeometry x="535" y="310" width="30" height="30" as="geometry" />
        </mxCell>
        <mxCell id="MiI8-VRYyV7ej-dN8pEf-90" style="edgeStyle=orthogonalEdgeStyle;rounded=0;orthogonalLoop=1;jettySize=auto;html=1;exitX=1;exitY=0.5;exitDx=0;exitDy=0;entryX=0;entryY=0.5;entryDx=0;entryDy=0;" edge="1" parent="1" source="MiI8-VRYyV7ej-dN8pEf-86" target="MiI8-VRYyV7ej-dN8pEf-87">
          <mxGeometry relative="1" as="geometry" />
        </mxCell>
        <mxCell id="MiI8-VRYyV7ej-dN8pEf-91" style="edgeStyle=orthogonalEdgeStyle;rounded=0;orthogonalLoop=1;jettySize=auto;html=1;exitX=0.5;exitY=1;exitDx=0;exitDy=0;entryX=0.5;entryY=0;entryDx=0;entryDy=0;" edge="1" parent="1" source="MiI8-VRYyV7ej-dN8pEf-86" target="MiI8-VRYyV7ej-dN8pEf-88">
          <mxGeometry relative="1" as="geometry" />
        </mxCell>
        <mxCell id="MiI8-VRYyV7ej-dN8pEf-86" value="13" style="ellipse;whiteSpace=wrap;html=1;aspect=fixed;" vertex="1" parent="1">
          <mxGeometry x="490" y="370" width="30" height="30" as="geometry" />
        </mxCell>
        <mxCell id="MiI8-VRYyV7ej-dN8pEf-93" style="edgeStyle=orthogonalEdgeStyle;rounded=0;orthogonalLoop=1;jettySize=auto;html=1;entryX=0.5;entryY=0;entryDx=0;entryDy=0;" edge="1" parent="1" source="MiI8-VRYyV7ej-dN8pEf-87" target="MiI8-VRYyV7ej-dN8pEf-92">
          <mxGeometry relative="1" as="geometry" />
        </mxCell>
        <mxCell id="MiI8-VRYyV7ej-dN8pEf-87" value="15" style="ellipse;whiteSpace=wrap;html=1;aspect=fixed;" vertex="1" parent="1">
          <mxGeometry x="580" y="370" width="30" height="30" as="geometry" />
        </mxCell>
        <mxCell id="MiI8-VRYyV7ej-dN8pEf-96" style="edgeStyle=orthogonalEdgeStyle;rounded=0;orthogonalLoop=1;jettySize=auto;html=1;" edge="1" parent="1" source="MiI8-VRYyV7ej-dN8pEf-88">
          <mxGeometry relative="1" as="geometry">
            <mxPoint x="470" y="480" as="targetPoint" />
          </mxGeometry>
        </mxCell>
        <mxCell id="MiI8-VRYyV7ej-dN8pEf-88" value="14" style="ellipse;whiteSpace=wrap;html=1;aspect=fixed;" vertex="1" parent="1">
          <mxGeometry x="490" y="420" width="30" height="30" as="geometry" />
        </mxCell>
        <mxCell id="MiI8-VRYyV7ej-dN8pEf-94" style="edgeStyle=orthogonalEdgeStyle;rounded=0;orthogonalLoop=1;jettySize=auto;html=1;entryX=0.5;entryY=1;entryDx=0;entryDy=0;" edge="1" parent="1" source="MiI8-VRYyV7ej-dN8pEf-92" target="MiI8-VRYyV7ej-dN8pEf-71">
          <mxGeometry relative="1" as="geometry">
            <mxPoint x="320" y="515" as="targetPoint" />
          </mxGeometry>
        </mxCell>
        <mxCell id="MiI8-VRYyV7ej-dN8pEf-92" value="16" style="ellipse;whiteSpace=wrap;html=1;aspect=fixed;" vertex="1" parent="1">
          <mxGeometry x="580" y="520" width="30" height="30" as="geometry" />
        </mxCell>
        <mxCell id="MiI8-VRYyV7ej-dN8pEf-107" style="edgeStyle=orthogonalEdgeStyle;rounded=0;orthogonalLoop=1;jettySize=auto;html=1;exitX=0;exitY=0.5;exitDx=0;exitDy=0;entryX=1;entryY=0.5;entryDx=0;entryDy=0;" edge="1" parent="1" source="MiI8-VRYyV7ej-dN8pEf-95" target="MiI8-VRYyV7ej-dN8pEf-106">
          <mxGeometry relative="1" as="geometry" />
        </mxCell>
        <mxCell id="MiI8-VRYyV7ej-dN8pEf-109" style="edgeStyle=orthogonalEdgeStyle;rounded=0;orthogonalLoop=1;jettySize=auto;html=1;exitX=1;exitY=0.5;exitDx=0;exitDy=0;entryX=1;entryY=0.5;entryDx=0;entryDy=0;" edge="1" parent="1" source="MiI8-VRYyV7ej-dN8pEf-95" target="MiI8-VRYyV7ej-dN8pEf-55">
          <mxGeometry relative="1" as="geometry">
            <mxPoint x="810" y="80" as="targetPoint" />
            <Array as="points">
              <mxPoint x="810" y="495" />
              <mxPoint x="810" y="75" />
            </Array>
          </mxGeometry>
        </mxCell>
        <mxCell id="MiI8-VRYyV7ej-dN8pEf-95" value="21" style="ellipse;whiteSpace=wrap;html=1;aspect=fixed;" vertex="1" parent="1">
          <mxGeometry x="455" y="480" width="30" height="30" as="geometry" />
        </mxCell>
        <mxCell id="MiI8-VRYyV7ej-dN8pEf-100" style="edgeStyle=orthogonalEdgeStyle;rounded=0;orthogonalLoop=1;jettySize=auto;html=1;exitX=0;exitY=1;exitDx=0;exitDy=0;entryX=0.5;entryY=0;entryDx=0;entryDy=0;" edge="1" parent="1" source="MiI8-VRYyV7ej-dN8pEf-97" target="MiI8-VRYyV7ej-dN8pEf-99">
          <mxGeometry relative="1" as="geometry" />
        </mxCell>
        <mxCell id="MiI8-VRYyV7ej-dN8pEf-102" style="edgeStyle=orthogonalEdgeStyle;rounded=0;orthogonalLoop=1;jettySize=auto;html=1;exitX=1;exitY=1;exitDx=0;exitDy=0;entryX=0.5;entryY=0;entryDx=0;entryDy=0;" edge="1" parent="1" source="MiI8-VRYyV7ej-dN8pEf-97" target="MiI8-VRYyV7ej-dN8pEf-101">
          <mxGeometry relative="1" as="geometry" />
        </mxCell>
        <mxCell id="MiI8-VRYyV7ej-dN8pEf-97" value="17" style="ellipse;whiteSpace=wrap;html=1;aspect=fixed;" vertex="1" parent="1">
          <mxGeometry x="670" y="200" width="30" height="30" as="geometry" />
        </mxCell>
        <mxCell id="MiI8-VRYyV7ej-dN8pEf-110" style="edgeStyle=orthogonalEdgeStyle;rounded=0;orthogonalLoop=1;jettySize=auto;html=1;entryX=1;entryY=0.5;entryDx=0;entryDy=0;" edge="1" parent="1" source="MiI8-VRYyV7ej-dN8pEf-99" target="MiI8-VRYyV7ej-dN8pEf-95">
          <mxGeometry relative="1" as="geometry">
            <mxPoint x="675" y="510" as="targetPoint" />
            <Array as="points">
              <mxPoint x="675" y="480" />
              <mxPoint x="485" y="480" />
            </Array>
          </mxGeometry>
        </mxCell>
        <mxCell id="MiI8-VRYyV7ej-dN8pEf-99" value="18" style="ellipse;whiteSpace=wrap;html=1;aspect=fixed;" vertex="1" parent="1">
          <mxGeometry x="660" y="410" width="30" height="30" as="geometry" />
        </mxCell>
        <mxCell id="MiI8-VRYyV7ej-dN8pEf-104" style="edgeStyle=orthogonalEdgeStyle;rounded=0;orthogonalLoop=1;jettySize=auto;html=1;exitX=0.5;exitY=1;exitDx=0;exitDy=0;entryX=0.5;entryY=0;entryDx=0;entryDy=0;" edge="1" parent="1" source="MiI8-VRYyV7ej-dN8pEf-101" target="MiI8-VRYyV7ej-dN8pEf-103">
          <mxGeometry relative="1" as="geometry" />
        </mxCell>
        <mxCell id="MiI8-VRYyV7ej-dN8pEf-101" value="19" style="ellipse;whiteSpace=wrap;html=1;aspect=fixed;" vertex="1" parent="1">
          <mxGeometry x="740" y="250" width="30" height="30" as="geometry" />
        </mxCell>
        <mxCell id="MiI8-VRYyV7ej-dN8pEf-105" style="edgeStyle=orthogonalEdgeStyle;rounded=0;orthogonalLoop=1;jettySize=auto;html=1;exitX=0.5;exitY=1;exitDx=0;exitDy=0;entryX=0;entryY=1;entryDx=0;entryDy=0;" edge="1" parent="1" source="MiI8-VRYyV7ej-dN8pEf-103" target="MiI8-VRYyV7ej-dN8pEf-71">
          <mxGeometry relative="1" as="geometry">
            <mxPoint x="320" y="860" as="targetPoint" />
            <Array as="points">
              <mxPoint x="755" y="600" />
              <mxPoint x="320" y="600" />
              <mxPoint x="320" y="486" />
            </Array>
          </mxGeometry>
        </mxCell>
        <mxCell id="MiI8-VRYyV7ej-dN8pEf-103" value="20" style="ellipse;whiteSpace=wrap;html=1;aspect=fixed;" vertex="1" parent="1">
          <mxGeometry x="740" y="310" width="30" height="30" as="geometry" />
        </mxCell>
        <mxCell id="MiI8-VRYyV7ej-dN8pEf-108" style="edgeStyle=orthogonalEdgeStyle;rounded=0;orthogonalLoop=1;jettySize=auto;html=1;exitX=0;exitY=0.5;exitDx=0;exitDy=0;entryX=1;entryY=1;entryDx=0;entryDy=0;" edge="1" parent="1" source="MiI8-VRYyV7ej-dN8pEf-106" target="MiI8-VRYyV7ej-dN8pEf-71">
          <mxGeometry relative="1" as="geometry" />
        </mxCell>
        <mxCell id="MiI8-VRYyV7ej-dN8pEf-106" value="22" style="ellipse;whiteSpace=wrap;html=1;aspect=fixed;" vertex="1" parent="1">
          <mxGeometry x="380" y="490" width="30" height="30" as="geometry" />
        </mxCell>
      </root>
    </mxGraphModel>
  </diagram>
</mxfile>
